<svg id="icon2" xmlns="http://www.w3.org/2000/svg" width="64.156" height="61.219" viewBox="0 0 64.156 61.219">
  <metadata><?xpacket begin="﻿" id="W5M0MpCehiHzreSzNTczkc9d"?>
<x:xmpmeta xmlns:x="adobe:ns:meta/" x:xmptk="Adobe XMP Core 5.6-c142 79.160924, 2017/07/13-01:06:39        ">
   <rdf:RDF xmlns:rdf="http://www.w3.org/1999/02/22-rdf-syntax-ns#">
      <rdf:Description rdf:about=""/>
   </rdf:RDF>
</x:xmpmeta>
                                                                                                    
                                                                                                    
                                                                                                    
                                                                                                    
                                                                                                    
                                                                                                    
                                                                                                    
                                                                                                    
                                                                                                    
                                                                                                    
                                                                                                    
                                                                                                    
                                                                                                    
                                                                                                    
                                                                                                    
                                                                                                    
                                                                                                    
                                                                                                    
                                                                                                    
                                                                                                    
                           
<?xpacket end="w"?></metadata>
<defs>
    <style>
      .cls-1 {
        fill: none;
      }

      .cls-1, .cls-2 {
        stroke: #9197a1;
        stroke-width: 1px;
        fill-rule: evenodd;
      }

      .cls-2 {
        fill: #fff;
      }
    </style>
  </defs>
  <path id="Rounded_Rectangle_1" data-name="Rounded Rectangle 1" class="cls-1" d="M780.133,1016.89a3.022,3.022,0,0,1-3.032-3.01v-4.51a3.032,3.032,0,0,0-6.063,0v18.11a3.032,3.032,0,0,1-6.063,0v-10.09a3.032,3.032,0,0,0-6.063,0v14.11a3.032,3.032,0,0,1-6.063,0v-20.85a3.032,3.032,0,0,0-6.064,0v0.73a3.032,3.032,0,0,1-6.063,0V992.319a3.032,3.032,0,0,1,6.063,0v4.514a3.032,3.032,0,0,0,6.064,0V985.3a3.032,3.032,0,0,1,6.063,0v5.015a3.032,3.032,0,0,0,6.063,0V984.3a3.032,3.032,0,0,1,6.063,0v7.02a3.032,3.032,0,0,0,6.063,0v-2.507a3.032,3.032,0,0,1,6.063,0v25.071A3.022,3.022,0,0,1,780.133,1016.89Z" transform="translate(-740.219 -980.781)"/>
  <path id="Rounded_Rectangle_2" data-name="Rounded Rectangle 2" class="cls-2" d="M758.018,1014.67l19.042-19.055a3.126,3.126,0,0,1,4.424,0l4.424,4.425a3.135,3.135,0,0,1,0,4.43l-19.042,19.06a3.131,3.131,0,0,1-4.424,0l-4.424-4.43A3.135,3.135,0,0,1,758.018,1014.67Zm27.227,11.86,3.667-3.67,3.318,3.32-3.667,3.67Zm3.685,2.96,2.933-2.94,11.8,11.81-2.933,2.93Z" transform="translate(-740.219 -980.781)"/>
  <path id="Rounded_Rectangle_3" data-name="Rounded Rectangle 3" class="cls-1" d="M786.6,999.938l4.7,4.642-5.918,16.3,2.99,2.95-1.5,1.47-4.049-3.99,5.918-16.3-1.589-1.57" transform="translate(-740.219 -980.781)"/>
</svg>
