<svg id="Group_4_copy" data-name="Group 4 copy" xmlns="http://www.w3.org/2000/svg" width="49" height="54.5" viewBox="0 0 49 54.5">
  <metadata><?xpacket begin="﻿" id="W5M0MpCehiHzreSzNTczkc9d"?>
<x:xmpmeta xmlns:x="adobe:ns:meta/" x:xmptk="Adobe XMP Core 5.6-c142 79.160924, 2017/07/13-01:06:39        ">
   <rdf:RDF xmlns:rdf="http://www.w3.org/1999/02/22-rdf-syntax-ns#">
      <rdf:Description rdf:about=""/>
   </rdf:RDF>
</x:xmpmeta>
                                                                                                    
                                                                                                    
                                                                                                    
                                                                                                    
                                                                                                    
                                                                                                    
                                                                                                    
                                                                                                    
                                                                                                    
                                                                                                    
                                                                                                    
                                                                                                    
                                                                                                    
                                                                                                    
                                                                                                    
                                                                                                    
                                                                                                    
                                                                                                    
                                                                                                    
                                                                                                    
                           
<?xpacket end="w"?></metadata>
<defs>
    <style>
      .cls-1 {
        fill: none;
        stroke: #9197a1;
        stroke-width: 1px;
        fill-rule: evenodd;
      }
    </style>
  </defs>
  <path id="Shape_4_copy_5" data-name="Shape 4 copy 5" class="cls-1" d="M471.5,1025a2,2,0,0,1,2,2s1.083,8,7,8h5a6,6,0,0,0,6-6v-6a4,4,0,0,0-4-4h-32a4,4,0,0,0-4,4v6a6,6,0,0,0,6,6h5c5.917,0,7-8,7-8A2,2,0,0,1,471.5,1025Z" transform="translate(-447 -981)"/>
  <path id="Shape_4_copy" data-name="Shape 4 copy" class="cls-1" d="M463.5,986.5a22.007,22.007,0,0,0-14,20.5l-2,2v4s7.25,2,24,2,24-2,24-2v-4l-2-2a22.007,22.007,0,0,0-14-20.5" transform="translate(-447 -981)"/>
  <path id="Shape_4_copy_2" data-name="Shape 4 copy 2" class="cls-1" d="M463.5,993v-7.5A2.5,2.5,0,0,1,466,983h11a2.5,2.5,0,0,1,2.5,2.5V993" transform="translate(-447 -981)"/>
  <path id="Shape_4_copy_3" data-name="Shape 4 copy 3" class="cls-1" d="M471.5,981v14m-16,11.91h32" transform="translate(-447 -981)"/>
  <path id="Shape_4_copy_4" data-name="Shape 4 copy 4" class="cls-1" d="M451.5,1029h-4v-6h4m40,6h4v-6h-4m-26.167-4-12.751,12.75m8.75-12.75-9.5,9.5m17.24-9.24-14.448,14.45" transform="translate(-447 -981)"/>
</svg>
